# xmcd
#
# Track frame offsets:
#	150
#	12300
#	24440
#	34610
#	44700
#	56493
#	68305
#	78000
#	85433
#	98695
#	112408
#	123133
#	133853
#	143393
#	152928
#	162453
#	170800
#
# Disc length: 2484 seconds
#
# Revision: 1
# Processed by: cddbd v1.5.1PL0 Copyright (c) Steve Scherf et al.
# Submitted via: CDex 1.50Beta5
#
DISCID=dd09b211
DTITLE=カムダンス27集 - カムダンス27集
DYEAR=1900
DGENRE=
TTITLE0=W
TTITLE1=W
TTITLE2=T
TTITLE3=T
TTITLE4=F
TTITLE5=F
TTITLE6=Q
TTITLE7=Vw
TTITLE8=R
TTITLE9=R
TTITLE10=C
TTITLE11=C
TTITLE12=S
TTITLE13=S
TTITLE14=P
TTITLE15=J
TTITLE16=B
EXTD=
EXTT0=
EXTT1=
EXTT2=
EXTT3=
EXTT4=
EXTT5=
EXTT6=
EXTT7=
EXTT8=
EXTT9=
EXTT10=
EXTT11=
EXTT12=
EXTT13=
EXTT14=
EXTT15=
EXTT16=
PLAYORDER=
